<svg width="129" height="78" viewBox="0 0 129 78" fill="none" xmlns="http://www.w3.org/2000/svg">
<path d="M16.9814 77.8454C13.766 77.8454 10.8855 76.7735 8.33999 74.6299C5.79445 72.4863 3.75132 69.4718 2.21059 65.5865C0.736867 61.6343 0 57.0791 0 51.9211C0 46.6289 0.770362 41.9733 2.31109 37.9541C3.8518 33.9347 5.96193 30.7864 8.64144 28.5087C11.321 26.2312 14.3019 25.0923 17.5843 25.0923C21.5366 25.0923 24.7185 26.7336 27.1301 30.0159C29.6087 33.2313 30.8479 38.4899 30.8479 45.7916C30.8479 48.0022 30.0106 49.1076 28.336 49.1076H9.24433C7.90457 49.1076 7.2347 49.8779 7.2347 51.4186C7.2347 58.5193 8.273 63.8448 10.3496 67.3952C12.4263 70.9457 15.0723 72.7207 18.2877 72.7207C20.8332 72.7207 22.9099 71.8164 24.5175 70.0078C26.1253 68.1991 27.4316 65.1511 28.4363 60.8639C28.6373 60.1271 29.0727 59.7586 29.7426 59.7586C30.5464 59.7586 30.8479 60.4284 30.647 61.7682C29.5752 67.7301 27.867 71.9169 25.5225 74.3285C23.1779 76.6731 20.3309 77.8454 16.9814 77.8454ZM8.94288 46.5954H19.0915C22.307 46.5954 23.9147 44.9208 23.9147 41.5714C23.9147 37.2172 23.3788 33.8008 22.307 31.3222C21.2352 28.8437 19.6275 27.6045 17.4839 27.6045C14.8713 27.6045 12.6607 29.1117 10.852 32.1262C9.11036 35.1406 7.97156 39.4278 7.43566 44.9878C7.30168 46.0596 7.80409 46.5954 8.94288 46.5954Z" fill="white"/>
<path d="M37.4263 76.9411C36.4215 76.9411 35.9191 76.5725 35.9191 75.8357C35.9191 75.2329 36.3545 74.831 37.2253 74.6299L38.4312 74.4289C40.1059 74.1611 41.1777 73.759 41.6466 73.2232C42.1156 72.6203 42.35 71.6154 42.35 70.2087V36.4469C42.35 35.241 42.1489 34.4372 41.747 34.0353C41.4122 33.5664 40.7758 33.2649 39.8379 33.1309L37.7278 32.8294C36.857 32.7625 36.4215 32.394 36.4215 31.7241C36.4215 31.1883 36.9575 30.8199 38.0293 30.6189C40.1059 30.2839 41.7805 29.7481 43.0533 29.0112C44.3261 28.2742 45.5655 27.37 46.7712 26.2982C47.374 25.6952 47.8765 25.3939 48.2784 25.3939C48.8813 25.3939 49.1828 25.7958 49.1828 26.5996V70.2087C49.1828 71.6154 49.3837 72.6203 49.7856 73.2232C50.1875 73.826 50.958 74.1944 52.0967 74.3285L54.6088 74.6299C55.3456 74.7639 55.7141 75.1323 55.7141 75.7352C55.7141 76.5392 55.2117 76.9411 54.2069 76.9411H37.4263Z" fill="white"/>
<path d="M73.2639 32.1262C76.0104 27.4369 79.3263 25.0923 83.2116 25.0923C85.4221 25.0923 87.0634 25.7622 88.1352 27.102C89.207 28.3748 89.7428 29.815 89.7428 31.4228C89.7428 32.6955 89.408 33.7338 88.7381 34.5376C88.1352 35.3416 87.1638 35.7435 85.824 35.7435C84.7522 35.7435 83.9484 35.509 83.4126 35.0401C82.9436 34.5042 82.5417 33.9012 82.2067 33.2313C81.9387 32.5616 81.6039 31.9921 81.202 31.5232C80.8 30.9873 80.1301 30.7193 79.1923 30.7193C77.9865 30.7193 76.8477 31.4563 75.7759 32.93C74.7041 34.3367 73.7997 36.2458 73.063 38.6574C72.3931 41.069 72.058 43.8154 72.058 46.8969V70.2087C72.058 71.6154 72.259 72.6203 72.6609 73.2232C73.1298 73.826 74.0677 74.1944 75.4744 74.3285L78.1875 74.6299C78.9243 74.7639 79.2928 75.1323 79.2928 75.7352C79.2928 76.5392 78.7903 76.9411 77.7856 76.9411H60.804C59.7993 76.9411 59.2968 76.5725 59.2968 75.8357C59.2968 75.2329 59.7322 74.831 60.6031 74.6299L61.809 74.4289C63.2156 74.1611 64.12 73.759 64.5219 73.2232C64.9908 72.6203 65.2253 71.6154 65.2253 70.2087V36.4469C65.2253 35.241 65.0244 34.4372 64.6225 34.0353C64.2874 33.5664 63.651 33.2649 62.7133 33.1309L60.6031 32.8294C59.7322 32.7625 59.2968 32.394 59.2968 31.7241C59.2968 31.1883 59.8328 30.8199 60.9046 30.6189C62.9811 30.2839 64.5554 29.7481 65.6272 29.0112C66.7661 28.2742 67.9383 27.37 69.1441 26.2982C69.747 25.6952 70.2495 25.3939 70.6514 25.3939C71.2542 25.3939 71.5557 25.7958 71.5557 26.5996V32.0256C71.5557 32.4946 71.7567 32.7959 72.1586 32.93C72.5605 32.997 72.9289 32.729 73.2639 32.1262Z" fill="white"/>
<path d="M101.075 77.8454C98.2619 77.8454 95.9507 76.9746 94.1422 75.2329C92.3334 73.4242 91.429 71.0461 91.429 68.0987C91.429 65.2181 92.3334 62.5052 94.1422 59.9595C95.9507 57.3471 98.4294 55.0024 101.578 52.9258C104.726 50.8493 108.31 49.1744 112.329 47.9017C113.2 47.6339 113.636 47.0644 113.636 46.1935V37.0498C113.636 33.8343 113.133 31.5567 112.128 30.2169C111.124 28.8102 109.75 28.1068 108.009 28.1068C106.334 28.1068 104.793 28.8772 103.386 30.4178C102.047 31.8917 101.075 34.4037 100.472 37.9541C100.138 40.0977 99.4006 41.6718 98.2619 42.6768C97.1901 43.6145 96.0848 44.0834 94.946 44.0834C93.0703 44.0834 92.1325 43.1455 92.1325 41.2699C92.1325 39.3273 92.6684 37.4181 93.7402 35.5425C94.8789 33.5999 96.3526 31.8582 98.1614 30.3174C99.9701 28.7097 101.946 27.4369 104.09 26.4992C106.233 25.5613 108.377 25.0923 110.521 25.0923C117.152 25.0923 120.468 28.9441 120.468 36.6479V67.3952C120.468 70.2087 121.172 71.6154 122.578 71.6154C123.449 71.6154 124.253 71.0461 124.99 69.9072C125.727 68.7015 126.095 66.6918 126.095 63.8783C126.095 62.8065 126.531 62.2707 127.402 62.2707C128.205 62.2707 128.607 62.84 128.607 63.9789C128.607 68.8689 127.737 72.4194 125.995 74.6299C124.32 76.7735 122.411 77.8454 120.267 77.8454C118.66 77.8454 117.387 77.2089 116.449 75.9361C115.511 74.5965 114.875 73.0222 114.54 71.2135C114.473 70.5436 114.172 70.2087 113.636 70.2087C113.167 70.1417 112.698 70.4432 112.229 71.1131C110.621 73.3236 108.98 74.9984 107.305 76.1371C105.63 77.2759 103.554 77.8454 101.075 77.8454ZM103.788 73.2232C105.53 73.2232 107.138 72.6203 108.612 71.4145C110.085 70.1417 111.291 68.467 112.229 66.3905C113.167 64.3138 113.636 61.9692 113.636 59.3566V52.0215C113.636 50.7487 112.932 50.3803 111.525 50.9161C107.439 52.39 104.257 54.4331 101.98 57.0456C99.7691 59.5911 98.6638 62.6726 98.6638 66.2899C98.6638 70.9122 100.372 73.2232 103.788 73.2232Z" fill="white"/>
<path d="M41.7878 1.3443C41.7878 0.98777 41.6462 0.645843 41.394 0.393737C41.1419 0.141634 40.8 1.31013e-06 40.4435 1.31013e-06C40.087 1.31013e-06 39.745 0.141634 39.4929 0.393737C39.2408 0.645843 39.0992 0.98777 39.0992 1.3443C39.122 2.25496 39.1269 3.02089 39.1112 3.86344C39.1082 4.02235 39.1046 4.18163 39.1003 4.34158C39.1046 5.08549 38.4612 5.93554 37.5015 6.64011C36.5001 7.39439 35.5438 7.77426 33.986 8.64657C33.3586 9.09779 32.7784 9.26725 31.7034 9.92685C31.6654 9.95572 31.6133 9.97344 31.3591 10.1484C31.2824 10.2182 31.2013 10.2202 30.9477 10.579C30.8848 10.6807 30.8016 10.8279 30.7541 11.0661C30.7012 11.3053 30.7357 11.6556 30.8518 11.8958C31.0997 12.3871 31.3424 12.4689 31.4522 12.546C31.9003 12.7629 31.9375 12.7143 32.0694 12.7495C33.8109 13.0851 35.9645 13.1448 37.0064 13.6302C38.1568 14.1829 39.3337 15.3214 40.282 16.4927C40.7439 17.0582 41.2128 17.4037 41.5918 17.7143C41.8805 18.0022 42.628 18.1252 42.9638 17.9782C43.3203 17.8595 43.4583 17.7252 43.5755 17.6297C43.7917 17.434 43.8788 17.3033 43.9641 17.1883C44.5413 16.3157 44.5844 15.6486 44.7053 15.069C44.8022 14.499 44.8842 13.9709 44.9924 13.6963C45.4319 12.3924 46.1202 11.5844 47.1811 10.6596C48.0406 9.91921 48.9018 9.59155 50.4558 8.78255C50.6145 8.66044 50.7803 8.6168 51.0794 8.13873C51.1561 7.99581 51.2208 7.84884 51.2556 7.60707C51.29 7.37151 51.2515 7.09401 51.1739 6.897C51.0043 6.47838 50.7944 6.3246 50.6542 6.20906C50.1264 5.85296 49.9669 5.8744 49.739 5.79503C49.3149 5.68264 48.9841 5.6292 48.6402 5.57032C47.9647 5.45875 47.3253 5.3692 46.711 5.25839C45.9792 5.13185 45.1366 4.92184 44.8571 4.74032C44.4999 4.51599 44.1902 4.26885 43.9338 3.99279C43.6647 3.70344 43.4637 3.39655 43.2217 2.95213C43.1227 2.77363 43.0158 2.56957 42.8645 2.32915C42.7319 2.1199 42.6474 1.97856 42.5872 1.84089C42.5561 1.77183 42.4482 1.4887 42.3542 1.29188C42.2577 1.08438 42.1602 0.895032 42.0622 0.711123C41.8941 0.396618 41.6081 0.161703 41.267 0.0580579C40.9259 -0.045586 40.5575 -0.00947216 40.243 0.158457C39.9285 0.326387 39.6937 0.612373 39.59 0.953507C39.4863 1.29464 39.5224 1.66297 39.6903 1.97747C39.7733 2.1326 39.8507 2.28427 39.9154 2.4237C39.9861 2.57334 40.0098 2.65075 40.1306 2.93338C40.2736 3.25925 40.4552 3.54967 40.593 3.76738C40.6682 3.88566 40.7605 4.0559 40.8666 4.24901C41.1304 4.7385 41.5045 5.33633 41.965 5.82366C42.4081 6.30086 42.9123 6.69391 43.4268 7.01688C44.5666 7.65736 45.3741 7.72344 46.2349 7.9045C46.9136 8.02662 47.5771 8.11939 48.1985 8.22237C48.5055 8.27366 48.8105 8.3291 49.032 8.38902C49.1156 8.39895 49.2764 8.50752 49.0227 8.34596C48.9502 8.28264 48.798 8.18727 48.6578 7.84491C48.5047 7.49336 48.6166 6.99773 48.727 6.83689C48.9425 6.50038 48.9815 6.55081 48.9897 6.52898C48.2043 6.92639 46.5701 7.61007 45.4256 8.6232C44.2221 9.61464 42.9627 11.1907 42.4808 12.7372C42.2025 13.5044 42.1542 14.0882 42.0566 14.6077C41.9788 15.1102 41.8333 15.5759 41.7762 15.6256C41.7525 15.6623 41.7243 15.6814 41.8003 15.6105C41.8469 15.5762 41.9074 15.4985 42.174 15.4082C42.4206 15.2912 43.0647 15.3966 43.2815 15.623C42.8815 15.304 42.5507 15.0279 42.3797 14.8112C41.2266 13.4203 40.0007 12.12 38.148 11.196C35.8453 10.2883 34.2842 10.473 32.508 10.097C32.517 10.1104 32.4309 10.0416 32.7677 10.2011C32.8522 10.2638 33.0666 10.3255 33.3019 10.7889C33.4116 11.0152 33.4443 11.3494 33.3944 11.5733C33.3498 11.7966 33.2733 11.9295 33.2188 12.018C32.9996 12.3252 32.9694 12.2885 32.9422 12.3215C32.8902 12.3538 33.0589 12.2558 33.2246 12.1437C33.6302 11.875 34.7097 11.4338 35.5085 10.8626C37.3617 9.75951 41.2943 8.67024 41.7879 4.41412C41.7924 4.24667 41.7963 4.07981 41.7993 3.91324C41.8163 3.05891 41.8093 2.12718 41.7878 1.3443Z" fill="white"/>
</svg>
